<mxfile host="65bd71144e">
    <diagram id="Mt7PkXHLqf5pdUkRVsPp" name="Page-1">
        <mxGraphModel dx="1310" dy="1578" grid="0" gridSize="10" guides="1" tooltips="1" connect="1" arrows="1" fold="1" page="0" pageScale="1" pageWidth="1169" pageHeight="827" math="0" shadow="0">
            <root>
                <mxCell id="0"/>
                <mxCell id="1" parent="0"/>
                <mxCell id="38" value="photographie" style="swimlane;fontStyle=0;childLayout=stackLayout;horizontal=1;startSize=30;horizontalStack=0;resizeParent=1;resizeParentMax=0;resizeLast=0;collapsible=1;marginBottom=0;whiteSpace=wrap;html=1;" vertex="1" parent="1">
                    <mxGeometry x="226" y="-193" width="140" height="120" as="geometry"/>
                </mxCell>
                <mxCell id="39" value="&lt;u&gt;code : int&lt;/u&gt;" style="text;strokeColor=none;fillColor=none;align=left;verticalAlign=middle;spacingLeft=4;spacingRight=4;overflow=hidden;points=[[0,0.5],[1,0.5]];portConstraint=eastwest;rotatable=0;whiteSpace=wrap;html=1;" vertex="1" parent="38">
                    <mxGeometry y="30" width="140" height="30" as="geometry"/>
                </mxCell>
                <mxCell id="40" value="lieu&amp;nbsp;&amp;nbsp;: string" style="text;strokeColor=none;fillColor=none;align=left;verticalAlign=middle;spacingLeft=4;spacingRight=4;overflow=hidden;points=[[0,0.5],[1,0.5]];portConstraint=eastwest;rotatable=0;whiteSpace=wrap;html=1;" vertex="1" parent="38">
                    <mxGeometry y="60" width="140" height="30" as="geometry"/>
                </mxCell>
                <mxCell id="41" value="licence&amp;nbsp;: string" style="text;strokeColor=none;fillColor=none;align=left;verticalAlign=middle;spacingLeft=4;spacingRight=4;overflow=hidden;points=[[0,0.5],[1,0.5]];portConstraint=eastwest;rotatable=0;whiteSpace=wrap;html=1;" vertex="1" parent="38">
                    <mxGeometry y="90" width="140" height="30" as="geometry"/>
                </mxCell>
                <mxCell id="42" value="utilisateur" style="swimlane;fontStyle=0;childLayout=stackLayout;horizontal=1;startSize=30;horizontalStack=0;resizeParent=1;resizeParentMax=0;resizeLast=0;collapsible=1;marginBottom=0;whiteSpace=wrap;html=1;" vertex="1" parent="1">
                    <mxGeometry x="9" y="-385" width="140" height="120" as="geometry"/>
                </mxCell>
                <mxCell id="43" value="&lt;u&gt;mail : string&lt;/u&gt;" style="text;strokeColor=none;fillColor=none;align=left;verticalAlign=middle;spacingLeft=4;spacingRight=4;overflow=hidden;points=[[0,0.5],[1,0.5]];portConstraint=eastwest;rotatable=0;whiteSpace=wrap;html=1;" vertex="1" parent="42">
                    <mxGeometry y="30" width="140" height="30" as="geometry"/>
                </mxCell>
                <mxCell id="44" value="nom d'utilisateur&amp;nbsp;: string" style="text;strokeColor=none;fillColor=none;align=left;verticalAlign=middle;spacingLeft=4;spacingRight=4;overflow=hidden;points=[[0,0.5],[1,0.5]];portConstraint=eastwest;rotatable=0;whiteSpace=wrap;html=1;" vertex="1" parent="42">
                    <mxGeometry y="60" width="140" height="30" as="geometry"/>
                </mxCell>
                <mxCell id="45" value="mot de passe&amp;nbsp;: string" style="text;strokeColor=none;fillColor=none;align=left;verticalAlign=middle;spacingLeft=4;spacingRight=4;overflow=hidden;points=[[0,0.5],[1,0.5]];portConstraint=eastwest;rotatable=0;whiteSpace=wrap;html=1;" vertex="1" parent="42">
                    <mxGeometry y="90" width="140" height="30" as="geometry"/>
                </mxCell>
                <mxCell id="86" style="edgeStyle=none;html=1;strokeColor=default;endArrow=none;endFill=0;" edge="1" parent="1" source="80" target="42">
                    <mxGeometry relative="1" as="geometry">
                        <mxPoint x="-22" y="-415" as="sourcePoint"/>
                        <mxPoint x="30" y="-339" as="targetPoint"/>
                    </mxGeometry>
                </mxCell>
                <mxCell id="72" value="albums" style="swimlane;fontStyle=0;childLayout=stackLayout;horizontal=1;startSize=30;horizontalStack=0;resizeParent=1;resizeParentMax=0;resizeLast=0;collapsible=1;marginBottom=0;whiteSpace=wrap;html=1;" vertex="1" parent="1">
                    <mxGeometry x="-206" y="-542" width="140" height="60" as="geometry"/>
                </mxCell>
                <mxCell id="101" style="edgeStyle=none;html=1;strokeColor=default;endArrow=none;endFill=0;" edge="1" parent="1" source="76" target="38">
                    <mxGeometry relative="1" as="geometry"/>
                </mxCell>
                <mxCell id="76" value="galerie" style="swimlane;fontStyle=0;childLayout=stackLayout;horizontal=1;startSize=30;horizontalStack=0;resizeParent=1;resizeParentMax=0;resizeLast=0;collapsible=1;marginBottom=0;whiteSpace=wrap;html=1;" vertex="1" parent="1">
                    <mxGeometry x="226" y="-542" width="140" height="60" as="geometry"/>
                </mxCell>
                <mxCell id="80" value="collections de photos" style="swimlane;fontStyle=0;childLayout=stackLayout;horizontal=1;startSize=30;horizontalStack=0;resizeParent=1;resizeParentMax=0;resizeLast=0;collapsible=1;marginBottom=0;whiteSpace=wrap;html=1;" vertex="1" parent="1">
                    <mxGeometry x="9" y="-542" width="140" height="60" as="geometry"/>
                </mxCell>
                <mxCell id="81" value="&lt;u&gt;num : int&lt;/u&gt;" style="text;strokeColor=none;fillColor=none;align=left;verticalAlign=middle;spacingLeft=4;spacingRight=4;overflow=hidden;points=[[0,0.5],[1,0.5]];portConstraint=eastwest;rotatable=0;whiteSpace=wrap;html=1;" vertex="1" parent="80">
                    <mxGeometry y="30" width="140" height="30" as="geometry"/>
                </mxCell>
                <mxCell id="84" value="" style="endArrow=classic;html=1;strokeColor=default;" edge="1" parent="1" source="72" target="80">
                    <mxGeometry width="50" height="50" relative="1" as="geometry">
                        <mxPoint x="136" y="-234" as="sourcePoint"/>
                        <mxPoint x="186" y="-284" as="targetPoint"/>
                    </mxGeometry>
                </mxCell>
                <mxCell id="85" value="" style="endArrow=classic;html=1;strokeColor=default;" edge="1" parent="1" source="76" target="80">
                    <mxGeometry width="50" height="50" relative="1" as="geometry">
                        <mxPoint x="136" y="-234" as="sourcePoint"/>
                        <mxPoint x="186" y="-284" as="targetPoint"/>
                    </mxGeometry>
                </mxCell>
                <mxCell id="87" value="possÃ¨de" style="text;html=1;strokeColor=none;fillColor=none;align=center;verticalAlign=middle;whiteSpace=wrap;rounded=0;" vertex="1" parent="1">
                    <mxGeometry x="73" y="-453" width="60" height="30" as="geometry"/>
                </mxCell>
                <mxCell id="88" value="1" style="text;html=1;strokeColor=none;fillColor=none;align=center;verticalAlign=middle;whiteSpace=wrap;rounded=0;" vertex="1" parent="1">
                    <mxGeometry x="59" y="-412" width="60" height="30" as="geometry"/>
                </mxCell>
                <mxCell id="89" value="0..*" style="text;html=1;strokeColor=none;fillColor=none;align=center;verticalAlign=middle;whiteSpace=wrap;rounded=0;" vertex="1" parent="1">
                    <mxGeometry x="63" y="-486" width="60" height="30" as="geometry"/>
                </mxCell>
                <mxCell id="102" value="appartient" style="text;html=1;strokeColor=none;fillColor=none;align=center;verticalAlign=middle;whiteSpace=wrap;rounded=0;" vertex="1" parent="1">
                    <mxGeometry x="298" y="-373" width="60" height="30" as="geometry"/>
                </mxCell>
                <mxCell id="103" value="0..*" style="text;html=1;strokeColor=none;fillColor=none;align=center;verticalAlign=middle;whiteSpace=wrap;rounded=0;" vertex="1" parent="1">
                    <mxGeometry x="283" y="-482" width="60" height="30" as="geometry"/>
                </mxCell>
                <mxCell id="104" value="0..*" style="text;html=1;strokeColor=none;fillColor=none;align=center;verticalAlign=middle;whiteSpace=wrap;rounded=0;" vertex="1" parent="1">
                    <mxGeometry x="286" y="-226" width="60" height="30" as="geometry"/>
                </mxCell>
                <mxCell id="105" style="edgeStyle=none;html=1;endArrow=none;endFill=0;" edge="1" parent="1" source="42" target="38">
                    <mxGeometry relative="1" as="geometry">
                        <mxPoint x="-220" y="-79.55128205128199" as="sourcePoint"/>
                        <mxPoint x="-48" y="-78.44871794871801" as="targetPoint"/>
                    </mxGeometry>
                </mxCell>
                <mxCell id="106" value="publie" style="text;html=1;strokeColor=none;fillColor=none;align=center;verticalAlign=middle;whiteSpace=wrap;rounded=0;" vertex="1" parent="1">
                    <mxGeometry x="182" y="-256" width="60" height="30" as="geometry"/>
                </mxCell>
                <mxCell id="107" value="" style="swimlane;fontStyle=0;childLayout=stackLayout;horizontal=1;startSize=30;horizontalStack=0;resizeParent=1;resizeParentMax=0;resizeLast=0;collapsible=1;marginBottom=0;whiteSpace=wrap;html=1;" vertex="1" parent="1">
                    <mxGeometry x="9" y="-243" width="140" height="60" as="geometry"/>
                </mxCell>
                <mxCell id="108" value="date publication : date" style="text;strokeColor=none;fillColor=none;align=left;verticalAlign=middle;spacingLeft=4;spacingRight=4;overflow=hidden;points=[[0,0.5],[1,0.5]];portConstraint=eastwest;rotatable=0;whiteSpace=wrap;html=1;" vertex="1" parent="107">
                    <mxGeometry y="30" width="140" height="30" as="geometry"/>
                </mxCell>
                <mxCell id="109" value="" style="endArrow=none;dashed=1;html=1;" edge="1" parent="1" source="107" target="106">
                    <mxGeometry width="50" height="50" relative="1" as="geometry">
                        <mxPoint x="-280" y="142" as="sourcePoint"/>
                        <mxPoint x="-130" y="142" as="targetPoint"/>
                    </mxGeometry>
                </mxCell>
                <mxCell id="110" value="1" style="text;html=1;strokeColor=none;fillColor=none;align=center;verticalAlign=middle;whiteSpace=wrap;rounded=0;" vertex="1" parent="1">
                    <mxGeometry x="135" y="-292" width="60" height="30" as="geometry"/>
                </mxCell>
                <mxCell id="111" value="0..*" style="text;html=1;strokeColor=none;fillColor=none;align=center;verticalAlign=middle;whiteSpace=wrap;rounded=0;" vertex="1" parent="1">
                    <mxGeometry x="208" y="-223" width="60" height="30" as="geometry"/>
                </mxCell>
                <mxCell id="113" style="edgeStyle=none;html=1;strokeColor=default;endArrow=none;endFill=0;" edge="1" parent="1" source="112" target="38">
                    <mxGeometry relative="1" as="geometry"/>
                </mxCell>
                <mxCell id="114" style="edgeStyle=none;html=1;strokeColor=default;endArrow=none;endFill=0;" edge="1" parent="1" source="112" target="72">
                    <mxGeometry relative="1" as="geometry"/>
                </mxCell>
                <mxCell id="115" style="edgeStyle=none;html=1;strokeColor=default;endArrow=none;endFill=0;" edge="1" parent="1" source="112" target="42">
                    <mxGeometry relative="1" as="geometry"/>
                </mxCell>
                <mxCell id="112" value="" style="rhombus;whiteSpace=wrap;html=1;strokeColor=default;" vertex="1" parent="1">
                    <mxGeometry x="-176" y="-173" width="80" height="80" as="geometry"/>
                </mxCell>
                <mxCell id="116" value="1" style="text;html=1;strokeColor=none;fillColor=none;align=center;verticalAlign=middle;whiteSpace=wrap;rounded=0;" vertex="1" parent="1">
                    <mxGeometry x="-42" y="-292" width="60" height="30" as="geometry"/>
                </mxCell>
                <mxCell id="117" value="0..*" style="text;html=1;strokeColor=none;fillColor=none;align=center;verticalAlign=middle;whiteSpace=wrap;rounded=0;" vertex="1" parent="1">
                    <mxGeometry x="-186" y="-482" width="60" height="30" as="geometry"/>
                </mxCell>
                <mxCell id="118" value="0..*" style="text;html=1;strokeColor=none;fillColor=none;align=center;verticalAlign=middle;whiteSpace=wrap;rounded=0;" vertex="1" parent="1">
                    <mxGeometry x="164" y="-157" width="60" height="30" as="geometry"/>
                </mxCell>
                <mxCell id="119" value="range" style="text;html=1;strokeColor=none;fillColor=none;align=center;verticalAlign=middle;whiteSpace=wrap;rounded=0;" vertex="1" parent="1">
                    <mxGeometry x="-211" y="-180" width="60" height="30" as="geometry"/>
                </mxCell>
                <mxCell id="120" value="On verifiera par contrainte qu'un album ne contient que des photos de l'utilisateur auquel il appartient" style="shape=note;whiteSpace=wrap;html=1;backgroundOutline=1;darkOpacity=0.05;strokeColor=default;size=17;" vertex="1" parent="1">
                    <mxGeometry x="-344" y="-164" width="118" height="139" as="geometry"/>
                </mxCell>
                <mxCell id="123" value="" style="endArrow=none;dashed=1;html=1;strokeColor=default;" edge="1" parent="1" source="112" target="120">
                    <mxGeometry width="50" height="50" relative="1" as="geometry">
                        <mxPoint x="14" y="-316" as="sourcePoint"/>
                        <mxPoint x="64" y="-366" as="targetPoint"/>
                    </mxGeometry>
                </mxCell>
            </root>
        </mxGraphModel>
    </diagram>
</mxfile>